<svg width="280" height="180" viewBox="0 0 280 180" fill="none" xmlns="http://www.w3.org/2000/svg">
  <rect x="20" y="20" width="240" height="140" rx="24" fill="#111216" stroke="#f5a300" stroke-opacity="0.5"/>
  <path d="M60 126L92 66L124 126H110L102 110H82L74 126H60ZM87 98H97L92 88L87 98Z" fill="#ffbf3c"/>
  <path d="M132 126V66H158C176 66 188 76 188 94C188 112 176 126 158 126H132ZM146 114H157C167 114 174 106 174 94C174 82 167 78 157 78H146V114Z" fill="#f5a300"/>
  <path d="M196 126V66H210V95L233 66H250L227 95L252 126H235L216 103L210 110V126H196Z" fill="#ffbf3c"/>
  <text x="140" y="150" text-anchor="middle" fill="#ffbf3c" font-family="Arial, sans-serif" font-size="14" font-weight="700">AMRG EXTERIORS</text>
</svg>
