<svg version="1.1" id="Layer_1" xmlns="http://www.w3.org/2000/svg" xmlns:xlink="http://www.w3.org/1999/xlink" x="0px" y="0px"
	 width="100%" viewBox="0 0 447 447" enable-background="new 0 0 447 447" xml:space="preserve">
<path fill="#010000" opacity="1.000000" stroke="none" 
	d="
M447.218628,447.550537 
	C299.901978,448.000000 152.803909,447.977203 5.706004,448.117157 
	C1.563689,448.121094 0.890829,447.175598 0.894221,443.210236 
	C1.019781,296.445557 1.000000,149.680710 1.000000,2.457953 
	C2.727910,1.063426 4.599641,1.524158 6.397304,1.523852 
	C151.383209,1.499205 296.369141,1.498669 441.355042,1.509018 
	C448.210510,1.509507 447.490479,0.788307 447.490967,7.642244 
	C447.501343,152.628159 447.498871,297.614075 447.496796,442.599976 
	C447.496765,444.100403 447.541351,445.601837 447.218628,447.550537 
z"/>
<path fill="#464646" opacity="1.000000" stroke="none" 
	d="
M447.500000,448.000000 
	C447.000977,301.840637 447.002289,155.681290 447.002075,9.521931 
	C447.002075,2.003325 446.996094,1.997330 439.414612,1.997929 
	C293.588684,2.009452 147.762726,2.022484 1.468391,2.017602 
	C1.899833,-0.067334 3.703347,1.063043 5.000103,1.060827 
	C47.999973,0.987337 90.999992,1.000000 133.999985,1.000000 
	C237.333313,1.000000 340.666656,1.021775 443.999847,0.904526 
	C447.423859,0.900641 448.097382,1.576214 448.094849,5.000043 
	C447.984711,152.666626 448.000000,300.333313 447.500000,448.000000 
z"/>
<path fill="#DA8F13" opacity="1.000000" stroke="none" 
	d="
M322.229706,168.722900 
	C290.662201,146.421036 259.310516,124.433037 228.187408,102.126076 
	C224.255569,99.307999 221.854675,99.791481 218.341583,102.316742 
	C190.761780,122.141495 163.070953,141.811768 135.409561,161.522980 
	C134.745605,161.996109 134.026550,162.391937 133.384445,162.791885 
	C131.635788,161.837128 132.356216,160.331711 132.345657,159.155212 
	C132.270981,150.823486 132.139664,142.486237 132.368500,134.160172 
	C132.498566,129.429062 129.255722,130.920609 126.928757,130.782394 
	C124.499008,130.638077 122.003380,130.074585 122.121117,134.284866 
	C122.409821,144.609451 121.980736,154.955322 122.323830,165.276566 
	C122.469383,169.655151 120.992058,172.346512 117.448013,174.700851 
	C110.656052,179.212799 104.178665,184.196304 97.423828,188.767014 
	C94.395927,190.815857 92.951103,193.129547 92.961708,196.953033 
	C93.100441,246.948959 93.158531,296.945526 93.008629,346.941193 
	C92.994873,351.528290 94.443192,352.323120 98.648369,352.301880 
	C130.311920,352.141815 161.978043,352.386627 193.639999,352.114014 
	C199.099182,352.067017 202.844772,353.373352 205.452530,358.172821 
	C206.621124,360.323578 208.304092,362.194824 209.699020,364.117615 
	C208.984482,365.583252 207.834290,365.048523 206.968338,365.048737 
	C166.471313,365.058136 125.973846,364.934601 85.477875,365.127838 
	C80.696236,365.150635 79.884415,363.647247 79.897583,359.306519 
	C80.047218,309.976807 79.921516,260.646179 80.129890,211.316895 
	C80.150169,206.514740 78.644142,205.522415 74.292496,205.740784 
	C67.542648,206.079514 60.763290,205.830215 53.536884,204.726990 
	C60.304195,199.817947 67.060143,194.893143 73.841454,190.003510 
	C84.509590,182.311340 95.146576,174.574142 105.909698,167.016876 
	C108.338753,165.311310 109.347305,163.515884 109.307945,160.489273 
	C109.147598,148.159409 109.375366,135.824554 109.222809,123.494469 
	C109.180779,120.097221 110.062294,118.790207 113.669807,118.905190 
	C121.494621,119.154587 129.337372,119.135757 137.163574,118.908691 
	C140.507217,118.811668 141.513000,119.967567 141.399780,123.180313 
	C141.201889,128.795685 141.344604,134.423065 141.344604,140.163666 
	C144.227036,140.069382 145.707794,138.351746 147.399689,137.141251 
	C171.367584,119.992729 195.353149,102.868042 219.206268,85.560959 
	C222.265945,83.340950 224.255417,83.295464 227.374374,85.516891 
	C271.180450,116.717186 315.095154,147.764984 358.978241,178.857162 
	C370.117981,186.749924 381.244141,194.661880 392.361908,202.585571 
	C393.382996,203.313309 394.297211,204.190979 396.241882,205.821365 
	C387.956360,205.821365 380.863037,206.121094 373.810211,205.715790 
	C369.123077,205.446442 367.681763,206.606293 367.703491,211.602524 
	C367.916046,260.431793 367.847931,309.262329 367.815216,358.092529 
	C367.809814,366.168030 368.772186,364.973358 360.959930,364.982269 
	C321.462524,365.027313 281.965057,365.011017 242.467621,364.975647 
	C240.723679,364.974091 238.888367,365.466248 236.795593,364.356171 
	C239.455811,360.802887 242.097626,357.437531 244.550339,353.939606 
	C246.139664,351.672974 248.396454,352.290131 250.457748,352.286438 
	C282.455444,352.229004 314.453217,352.222687 346.450989,352.205933 
	C353.933960,352.201996 353.921631,352.204346 353.922974,344.947937 
	C353.932068,295.451233 353.898834,245.954361 354.054321,196.458084 
	C354.066254,192.656570 352.886810,190.417465 349.807892,188.316010 
	C340.594177,182.027359 331.597321,175.421021 322.229706,168.722900 
z"/>
<path fill="#DB9013" opacity="1.000000" stroke="none" 
	d="
M220.507904,132.675232 
	C222.105103,131.243591 222.843689,128.084778 225.456329,131.304840 
	C234.995956,143.062347 245.100052,154.408829 251.559265,168.334763 
	C260.171387,186.902328 257.799286,205.089233 248.891266,222.640991 
	C241.466370,237.270477 234.851364,252.063492 232.555237,268.469086 
	C232.304184,270.262695 232.108871,272.402832 229.409821,271.933960 
	C226.840057,271.487549 227.860046,269.304932 227.867325,267.886017 
	C227.994431,243.060608 227.791687,218.238876 226.951965,193.427521 
	C226.503281,180.170364 225.319366,166.962982 223.539795,153.787369 
	C221.171326,171.966049 220.413361,190.226318 219.612015,208.492828 
	C218.749847,228.145218 219.013412,247.800293 218.899200,267.456177 
	C218.890289,268.991364 220.186890,271.462158 217.340240,271.928223 
	C214.076569,272.462524 214.590652,269.480164 214.345505,267.850311 
	C212.041656,252.533203 206.701004,238.301041 199.461166,224.691971 
	C186.075989,199.531265 187.672501,175.465027 204.970901,152.650650 
	C209.999115,146.019104 215.180649,139.503815 220.507904,132.675232 
z"/>
<path fill="#DB9013" opacity="1.000000" stroke="none" 
	d="
M316.429382,274.527100 
	C305.077393,280.141083 293.599274,279.424377 286.874786,272.842712 
	C288.171082,271.455536 289.982361,272.080322 291.496643,271.698883 
	C300.135529,269.522797 305.727692,263.589539 305.999542,256.081421 
	C306.284515,248.210403 300.926453,240.402924 292.890472,237.971146 
	C280.721222,234.288574 269.874664,237.240921 260.466522,245.601837 
	C253.690994,251.623154 249.263092,259.269592 246.692413,267.818420 
	C245.458481,271.921875 243.149612,272.362366 239.693405,272.055786 
	C237.891098,271.895905 237.390305,271.300049 237.842041,269.561279 
	C243.526733,247.680954 253.051514,228.193222 273.303558,216.182343 
	C286.173096,208.549789 299.652771,208.183014 312.517487,216.535538 
	C325.494995,224.961304 331.557526,237.153931 330.162048,252.635635 
	C329.321930,261.955780 324.722992,269.264404 316.429382,274.527100 
z"/>
<path fill="#DB9013" opacity="1.000000" stroke="none" 
	d="
M192.658508,233.334198 
	C199.853836,242.931519 204.546478,253.371735 207.620560,264.509827 
	C208.248749,266.785889 211.074722,270.213013 207.649216,271.782410 
	C203.671036,273.605011 201.118744,271.134033 199.769257,266.927246 
	C197.671860,260.389069 194.400375,254.383682 189.767456,249.221924 
	C182.007736,240.576401 172.587921,235.708267 160.688156,236.585419 
	C149.756760,237.391190 142.689545,243.993637 142.210800,253.818802 
	C141.738068,263.520355 147.359573,269.830841 158.380173,271.940308 
	C159.346649,272.125305 160.337784,272.181458 162.617645,272.451416 
	C156.581787,277.467407 150.490768,278.943146 144.008163,278.321350 
	C122.464058,276.254822 110.846939,253.363419 120.694077,232.701981 
	C132.128143,208.710815 159.507065,203.452179 181.096130,221.143066 
	C185.357635,224.635086 189.141678,228.621506 192.658508,233.334198 
z"/>
<path fill="#D88E14" opacity="1.000000" stroke="none" 
	d="
M223.750214,335.338379 
	C224.646179,324.509674 225.340042,314.042450 226.036850,303.575439 
	C226.142044,301.995209 225.601959,300.065430 228.246780,299.975891 
	C230.674591,299.893738 230.730011,301.531372 230.960144,303.268890 
	C232.543991,315.226013 235.227203,326.849823 241.779312,337.217499 
	C242.715622,338.699097 242.701035,339.866364 241.664658,341.269745 
	C235.637817,349.430817 229.665634,357.632233 223.335190,366.284424 
	C216.925003,357.613647 210.751923,349.202148 204.493500,340.854645 
	C203.365356,339.349915 204.316711,338.382874 204.968979,337.295532 
	C211.085114,327.099945 214.054367,315.946198 215.225967,304.210144 
	C215.386765,302.599518 214.772400,300.345154 217.577026,299.990967 
	C220.520416,299.619324 221.215012,300.999359 221.316910,303.688477 
	C221.701553,313.838562 222.294937,323.980774 222.888611,334.559235 
	C224.061172,336.763031 223.246765,338.715973 223.499985,340.952698 
	C223.331894,343.094330 223.862274,344.928619 223.548798,345.672699 
	C223.634262,345.189789 223.444885,343.661438 223.500015,341.779114 
	C223.519867,339.495026 223.453690,337.596771 223.750214,335.338379 
z"/>
<path fill="#DB9013" opacity="1.000000" stroke="none" 
	d="
M226.999939,278.982300 
	C233.664017,278.988647 239.831619,278.868896 245.991165,279.040009 
	C251.355469,279.188995 254.286102,281.960815 254.241119,286.385193 
	C254.194626,290.958191 250.954224,293.946350 245.583588,293.974365 
	C230.756195,294.051697 215.927979,294.045929 201.100464,293.982330 
	C195.765778,293.959442 192.888519,291.381378 192.698624,286.822815 
	C192.498993,282.031128 195.283325,279.229004 201.013138,279.094727 
	C209.504974,278.895721 218.003998,279.004669 226.999939,278.982300 
z"/>
<path fill="#D88E14" opacity="1.000000" stroke="none" 
	d="
M239.157806,299.876984 
	C243.365280,299.157745 243.797104,302.273499 244.808105,304.606201 
	C247.652283,311.168549 251.982437,315.877777 259.599518,316.214569 
	C267.658081,316.570862 272.520142,312.414856 275.675507,302.824158 
	C284.584595,309.584106 283.691956,324.783020 274.027527,330.884369 
	C264.914764,336.637451 252.822327,334.333771 245.304749,325.346497 
	C240.018753,319.027069 237.627747,311.431976 235.918747,303.556305 
	C235.407074,301.198273 235.785156,299.538818 239.157806,299.876984 
z"/>
<path fill="#D88E14" opacity="1.000000" stroke="none" 
	d="
M173.581512,309.267090 
	C182.459747,320.101685 195.977509,317.948425 201.021362,305.221924 
	C201.570541,303.836212 201.791107,302.199066 202.681076,301.095490 
	C204.400925,298.962891 207.065475,299.610291 209.194260,300.061920 
	C211.817535,300.618500 210.102463,302.913635 209.895981,304.214233 
	C208.345535,313.980194 204.827820,322.838287 196.907715,329.300934 
	C188.864929,335.863647 176.824951,335.414825 170.003143,328.442596 
	C163.277573,321.568756 163.508057,310.754547 170.779083,302.536926 
	C171.677490,304.774628 172.520264,306.873749 173.581512,309.267090 
z"/>
<path fill="#261B0A" opacity="1.000000" stroke="none" 
	d="
M223.705338,334.984253 
	C223.962158,337.014130 223.972946,339.051453 223.924957,341.520569 
	C223.740036,342.179260 223.613876,342.406128 223.285553,342.300232 
	C222.989136,339.930328 222.894867,337.893250 222.883820,335.424347 
	C222.967026,334.992554 223.459305,334.991730 223.705338,334.984253 
z"/>
<path fill="#483310" opacity="1.000000" stroke="none" 
	d="
M223.003998,342.354523 
	C223.083389,341.967438 223.474747,341.958130 223.670471,341.955261 
	C224.044083,343.833313 224.387329,345.727692 222.924591,348.781677 
	C222.924591,345.927582 222.924591,344.334595 223.003998,342.354523 
z"/>
</svg>